<svg xmlns="http://www.w3.org/2000/svg" viewBox="0 0 512 512" fill="none">
  <rect width="512" height="512" rx="96" fill="#0f1117"/>
  <defs>
    <linearGradient id="g" x1="80" y1="80" x2="432" y2="432" gradientUnits="userSpaceOnUse">
      <stop stop-color="#2dd4bf"/>
      <stop offset="1" stop-color="#a78bfa"/>
    </linearGradient>
  </defs>
  <path d="M256 96c-44 0-80 36-80 80v24c0 22 18 40 40 40h80c22 0 40-18 40-40v-24c0-44-36-80-80-80z" fill="url(#g)" opacity="0.9"/>
  <path d="M128 280c0-35 28-64 64-64h128c35 0 64 29 64 64v56c0 35-29 64-64 64H192c-35 0-64-29-64-64v-56z" fill="url(#g)"/>
  <circle cx="200" cy="320" r="20" fill="#0f1117"/>
  <circle cx="312" cy="320" r="20" fill="#0f1117"/>
  <path d="M220 380h72" stroke="#0f1117" stroke-width="16" stroke-linecap="round"/>
</svg>
